<svg id="e915i3p57j771" xmlns="http://www.w3.org/2000/svg" xmlns:xlink="http://www.w3.org/1999/xlink" viewBox="0 0 902.097460 742.062810" shape-rendering="geometricPrecision" text-rendering="geometricPrecision"><g id="e915i3p57j772" transform="matrix(1 0 0 1 -0.00012864500002 0)"><path id="e915i3p57j773" d="M945.694810,680.395840C927.521620,715.860920,904.470810,750.159960,875.305610,781.203470C874.657930,781.904530,874.003700,782.587470,873.343680,783.282760L804.242860,750.569760C804.665600,749.867400,805.129100,749.079140,805.627420,748.217130C835.310640,697.430130,1014.492290,387.625670,1008.830370,317.458780C1009.489920,323.245790,1030.728550,514.627750,945.694810,680.395840Z" transform="matrix(1 0 0 1 -148.95099999999999 -78.96860000000000)" fill="rgb(230,230,230)" stroke="none" stroke-width="1"/><path id="e915i3p57j774" d="M888.636800,787.514570C887.669570,788.064360,886.677800,788.602570,885.679570,789.122680L833.841710,764.582160C834.566450,764.067940,835.410710,763.459970,836.381150,762.776270C852.262440,751.373740,899.486440,717.162990,945.694810,680.395840C995.352810,640.884970,1043.846930,598.431720,1051.048730,578.167500C1049.585860,582.814300,1004.134250,724.064550,888.636800,787.514570Z" transform="matrix(1.02000000000000 0 0 1 -148.95099999999999 -78.96860000000000)" fill="rgb(230,230,230)" stroke="none" stroke-width="1"/><ellipse id="e915i3p57j775" rx="267" ry="26.435600" transform="matrix(1 0 0 1 267 715.62699999999995)" fill="rgb(230,230,230)" stroke="none" stroke-width="1"/><polygon id="e915i3p57j776" points="340.407000,445.280000 275.039000,449.483000 257.506000,387.422000 314.960000,373.958000 340.407000,445.280000" fill="rgb(47,46,65)" stroke="none" stroke-width="1"/><path id="e915i3p57j777" d="M578.492000,605.519820L596.392090,605.667070C600.058176,605.697226,603.551302,604.110492,605.940545,601.329734C608.329788,598.548977,609.372388,594.856736,608.790490,591.237000L608.790490,591.237000C608.163030,587.333835,605.719683,583.960403,602.206782,582.147137C598.693882,580.333871,594.528721,580.296166,590.983570,582.045540L574.103000,590.375280L516.366470,603.250880L491.631330,577.961700L477.423150,601.362700L510.801150,627.150570Z" transform="matrix(1 0 0 1 -148.95099999999999 -78.96860000000000)" fill="rgb(255,184,184)" stroke="none" stroke-width="1"/><path id="e915i3p57j778" d="M575.137000,790.458500L554.047500,794.514170C539.642140,749.105640,524.034500,706.103330,524.035500,672.843990C503.649400,695.532940,478.369000,708.513320,448.600000,712.589580L451.844540,662.299240L476.178540,649.321090L513.421540,632.132010C516.682350,630.627022,520.199973,629.756890,523.786370,629.568130L523.786370,629.568130C538.226313,628.808133,550.913678,639.063278,553.198210,653.341600Z" transform="matrix(1 0 0 1 -148.95099999999999 -78.96860000000000)" fill="rgb(255,184,184)" stroke="none" stroke-width="1"/><path id="e915i3p57j779" d="M571.892430,770.180140C571.892430,770.180140,573.914670,769.323560,581.990670,779.891390C581.990670,779.891390,607.780890,784.693860,603.515590,796.323210C599.250290,807.952560,566.089590,807.586960,562.938350,805.810290C559.787110,804.033620,534.705620,804.070100,536.439350,796.168870C538.173080,788.267640,548.164100,779.436810,548.164100,779.436810C548.164100,779.436810,552.757810,788.744710,559.898030,788.783810C569.458980,788.836200,572.703520,780.724810,571.081250,772.613510C571.066100,772.537530,571.953680,770.229000,571.892430,770.180140Z" transform="matrix(1 0 0 1 -148.95099999999999 -78.96860000000000)" fill="rgb(47,46,65)" stroke="none" stroke-width="1"/><path id="e915i3p57j7710" d="M409.611350,742.522000C409.611350,742.522000,412.770990,751.159110,398.545160,756.363210C398.545160,756.363210,384.591330,782.781920,373.389480,774.206540C362.187630,765.631160,373.812090,729.695540,376.810970,726.870330C379.809850,724.045120,388.261780,696.758820,396.266680,701.319200C404.271580,705.879580,410.491830,719.733680,410.491830,719.733680C410.491830,719.733680,384.716830,728.010590,396.909720,747.168520C396.909720,747.168560,402.225750,747.528080,409.611350,742.522000Z" transform="matrix(1 0 0 1 -148.95099999999999 -78.96860000000000)" fill="rgb(47,46,65)" stroke="none" stroke-width="1"/><circle id="e915i3p57j7711" r="26.561000" transform="matrix(1 0 0 1 290.13900000000001 407.90800000000002)" fill="rgb(255,184,184)" stroke="none" stroke-width="1"/><path id="e915i3p57j7712" d="M461.983700,557.257320L415.749000,557.257320L406.015390,528.867610C422.890000,523.716880,418.948390,509.089470,415.749000,494.799960L461.983700,494.799960C453.020430,512.677220,441.884950,537.977800,463.605970,542.656900Z" transform="matrix(1 0 0 1 -148.95099999999999 -78.96860000000000)" fill="rgb(255,184,184)" stroke="none" stroke-width="1"/><path id="e915i3p57j7713" d="M474.150720,706.506080L465.745130,712.894320C458.390621,718.483746,448.624750,719.756853,440.083080,716.239700L440.083080,716.239700C416.007670,698.193640,396.372310,703.601700,380.870260,730.840120C362.276150,709.854840,360.219990,679.461250,376.814580,648.104400L468.878360,650.132230L487.534450,644.454290Z" transform="matrix(1 0 0 1 -148.95099999999999 -78.96860000000000)" fill="rgb(47,46,65)" stroke="none" stroke-width="1"/><path id="e915i3p57j7714" d="M443.490220,800.485250L443.490220,800.485250C432.601903,803.835509,420.878456,798.896198,415.670450,788.764250C407.396840,781.476860,400.415900,771.043310,394.361160,758.355630C390.016870,749.048463,386.286508,739.466890,383.194000,729.672370C379.004340,716.732280,386.009850,702.595580,399.048720,698.724280Q399.630310,698.551600,400.226080,698.398690C417.632360,693.929840,435.507300,703.969330,441.457210,720.926560L458.758360,770.234850C460.875099,776.267540,460.443361,782.902163,457.562648,788.609651C454.681934,794.317140,449.600777,798.605084,443.490220,800.485250Z" transform="matrix(1 0 0 1 -148.95099999999999 -78.96860000000000)" fill="rgb(255,184,184)" stroke="none" stroke-width="1"/><path id="e915i3p57j7715" d="M391.415000,752.740740C391.415000,752.740740,411.693360,775.452510,415.749000,788.430660" transform="matrix(1 0 0 1 -148.95099999999999 -78.96860000000000)" opacity="0.2" fill="rgb(0,0,0)" stroke="none" stroke-width="1"/><path id="e915i3p57j7716" d="M474.961850,648.104390C451.655990,687.251680,414.174690,680.381150,374.381170,649.726660C391.163500,637.179020,380.870250,601.058580,366.269830,598.625180C351.172220,596.108910,349.356550,565.233120,343.558060,549.957110L414.126760,524.000800L433.188430,539.006800L452.250090,534.545560L460.064880,537.318560C470.481071,541.014669,477.495722,550.803935,477.647150,561.855420C461.633000,584.990930,449.777870,609.670900,474.961850,648.104390Z" transform="matrix(1 0 0 1 -148.95099999999999 -78.96860000000000)" fill="rgb(247,88,140)" stroke="none" stroke-width="1"/><path id="e915i3p57j7717" d="M483.884330,616.470140C483.884330,616.470140,480.292520,597.950370,468.501930,603.762930C456.711340,609.575490,455.900190,593.352810,455.900190,593.352810L465.228240,539.412360L503.351560,579.969090Z" transform="matrix(1 0 0 1 -148.95099999999999 -78.96860000000000)" fill="rgb(247,88,140)" stroke="none" stroke-width="1"/><path id="e915i3p57j7718" d="M463.898360,452.693000C463.898360,452.693000,477.359290,457.740720,477.547550,475.660890C477.540000,478.676084,477.110927,481.675416,476.272790,484.571790C475.368090,487.856960,474.602270,494.995520,480.406640,504.571790C484.199687,510.787859,487.621729,517.222847,490.654840,523.843040L490.654840,523.843040L475.435910,525.175710L473.144560,499.946180C472.033658,487.714309,469.127851,475.712650,464.520620,464.327300L464.424440,464.089630C464.424440,464.089630,457.341080,476.152630,444.085860,475.661810L448.995160,471.103100C448.995160,471.103100,432.333480,477.209780,423.292450,478.385470C421.189639,478.659293,419.410975,480.074197,418.671264,482.061562C417.931553,484.048926,418.352247,486.282447,419.764280,487.864520Q419.842970,487.952190,419.925020,488.040520C425.395480,493.931680,436.266270,507.607590,429.253020,517.776990C422.239770,527.946390,427.815390,530.997140,427.815390,530.997140L417.611000,524.930780L412.982170,521.915090L412.841930,525.702290L388.330290,521.950370C388.330290,521.950370,381.737740,520.758160,396.535750,505.188370C396.535750,505.188370,400.517470,499.076780,399.076310,493.625090C397.879789,489.478144,397.686897,485.106057,398.513560,480.869850C402.352350,463.238280,416.142000,428.412430,463.898360,452.693000Z" transform="matrix(1 0 0 1 -149.94999999999999 -78.96860000000000)" fill="rgb(47,46,65)" stroke="none" stroke-width="1"/><g id="e915i3p57j7719"><path id="e915i3p57j7720" d="M948.228120,251.913610L944.228120,251.913610L944.228120,142.368610C944.228120,107.353757,915.842973,78.968610,880.828120,78.968610L648.741120,78.968610C613.726267,78.968610,585.341120,107.353757,585.341120,142.368610L585.341120,743.342610C585.341120,778.357463,613.726267,806.742610,648.741120,806.742610L880.827120,806.742610C915.841973,806.742610,944.227120,778.357463,944.227120,743.342610L944.227120,329.889590L948.227120,329.889590Z" transform="matrix(1 0 0 1.03069829198007 -148.95099999999999 -78.96860000000000)" fill="rgb(63,61,86)" stroke="none" stroke-width="1"/><path id="e915i3p57j7721" d="M883.386080,95.461600L853.091080,95.461600C855.921701,102.398328,855.113053,110.289049,850.934282,116.507448C846.755511,122.725847,839.755117,126.455708,832.263080,126.455600L699.304080,126.455600C691.813011,126.454968,684.813757,122.725372,680.635385,116.507870C676.457014,110.290368,675.647824,102.400840,678.477080,95.464600L650.177080,95.464600C624.027502,95.464600,602.829080,116.663022,602.829080,142.812600L602.829080,742.901600C602.829080,769.051178,624.027502,790.249600,650.177080,790.249600L883.377110,790.249600C909.526688,790.249600,930.725110,769.051178,930.725110,742.901600L930.725110,742.901530L930.725110,742.901530L930.725110,142.809530C930.725110,116.659952,909.526688,95.461530,883.377110,95.461530L883.386110,95.461530Z" transform="matrix(1 0 0 1 -148.95099999999999 -78.96860000000000)" fill="rgb(255,255,255)" stroke="none" stroke-width="1"/></g><circle id="e915i3p57j7722" r="26" transform="matrix(1 0 0 1 618.23099999999999 651.74599999999998)" fill="rgb(230,230,230)" stroke="none" stroke-width="1"/><path id="e915i3p57j7723" d="M661.705820,490.266820C659.248190,490.266820,657.248250,492.549560,657.248250,495.354710C657.248250,498.159860,659.248190,500.442610,661.705820,500.442610L871.848390,500.442610C874.306020,500.442610,876.305960,498.159870,876.305960,495.354710C876.305960,492.549550,874.306020,490.266820,871.848390,490.266820Z" transform="matrix(1 0 0 1 -148.95099999999999 -78.96860000000000)" fill="rgb(230,230,230)" stroke="none" stroke-width="1"/><path id="e915i3p57j7724" d="M661.705820,610.266820C659.248190,610.266820,657.248250,612.549560,657.248250,615.354710C657.248250,618.159860,659.248190,620.442610,661.705820,620.442610L871.848390,620.442610C874.306020,620.442610,876.305960,618.159870,876.305960,615.354710C876.305960,612.549550,874.306020,610.266820,871.848390,610.266820Z" transform="matrix(1 0 0 1 -148.95099999999999 -78.96860000000000)" fill="rgb(230,230,230)" stroke="none" stroke-width="1"/><path id="e915i3p57j7725" d="M661.705820,520.794200C659.248190,520.794200,657.248250,523.076940,657.248250,525.882100C657.248250,528.687260,659.248190,530.969990,661.705820,530.969990L752.130820,530.969990C754.588460,530.969990,756.588390,528.687250,756.588390,525.882100C756.588390,523.076950,754.588460,520.794200,752.130820,520.794200Z" transform="matrix(1 0 0 1 -148.95099999999999 -78.96860000000000)" fill="rgb(230,230,230)" stroke="none" stroke-width="1"/><path id="e915i3p57j7726" d="M661.705820,549.892590C659.248190,549.892590,657.248250,552.175330,657.248250,554.980480C657.248250,557.785630,659.248190,560.068380,661.705820,560.068380L871.848390,560.068380C874.306020,560.068380,876.305960,557.785640,876.305960,554.980480C876.305960,552.175320,874.306020,549.892590,871.848390,549.892590Z" transform="matrix(1 0 0 1 -148.95099999999999 -78.96860000000000)" fill="rgb(230,230,230)" stroke="none" stroke-width="1"/><path id="e915i3p57j7727" d="M661.705820,580.420000C659.248190,580.420000,657.248250,582.702740,657.248250,585.507900C657.248250,588.313060,659.248190,590.595790,661.705820,590.595790L752.130820,590.595790C754.588460,590.595790,756.588390,588.313050,756.588390,585.507900C756.588390,582.702750,754.588460,580.420000,752.130820,580.420000Z" transform="matrix(1 0 0 1 -148.95099999999999 -78.96860000000000)" fill="rgb(230,230,230)" stroke="none" stroke-width="1"/><g id="e915i3p57j7728"><path id="e915i3p57j7729" d="M701.376830,258.595760L832.190350,258.595760C835.199124,258.599320,837.637330,261.037526,837.640890,264.046300L837.640890,400.283210C837.637330,403.291984,835.199124,405.730190,832.190350,405.733750L701.376830,405.733750C698.368056,405.730190,695.929850,403.291984,695.926290,400.283210L695.926290,264.046300C695.929850,261.037526,698.368056,258.599320,701.376830,258.595760Z" transform="matrix(1 0 0 1 -148.95099999999999 -78.96860000000000)" fill="rgb(247,88,140)" stroke="none" stroke-width="1"/><path id="e915i3p57j7730" d="M804.316590,377.639220C805.640077,377.641396,806.863961,376.936573,807.526334,375.790761C808.188706,374.644949,808.188706,373.232621,807.526334,372.086809C806.863961,370.940997,805.640077,370.236174,804.316590,370.238350L729.250590,370.238350C727.927103,370.236174,726.703219,370.940997,726.040846,372.086809C725.378474,373.232621,725.378474,374.644949,726.040846,375.790761C726.703219,376.936573,727.927103,377.641396,729.250590,377.639220Z" transform="matrix(1 0 0 1 -148.95099999999999 -78.96860000000000)" fill="rgb(255,255,255)" stroke="none" stroke-width="1"/><path id="e915i3p57j7731" d="M804.316590,355.837060C806.360286,355.837060,808.017030,354.180316,808.017030,352.136620C808.017030,350.092924,806.360286,348.436180,804.316590,348.436180L729.250590,348.436180C727.928550,348.436180,726.706935,349.141480,726.045915,350.286400C725.384895,351.431320,725.384895,352.841920,726.045915,353.986840C726.706935,355.131760,727.928550,355.837060,729.250590,355.837060Z" transform="matrix(1 0 0 1 -148.95099999999999 -78.96860000000000)" fill="rgb(255,255,255)" stroke="none" stroke-width="1"/><path id="e915i3p57j7732" d="M766.783320,286.690290C776.204279,286.690286,784.697592,292.365332,788.302838,301.069162C791.908085,309.772993,789.915274,319.791536,783.253650,326.453160C776.592026,333.114784,766.573483,335.107595,757.869652,331.502348C749.165822,327.897102,743.490776,319.403789,743.490780,309.982830C743.505323,297.124744,753.925234,286.704833,766.783320,286.690290Z" transform="matrix(1 0 0 1 -148.95099999999999 -78.96860000000000)" fill="rgb(255,255,255)" stroke="none" stroke-width="1"/></g><g id="e915i3p57j7733"><circle id="e915i3p57j7734" r="80" transform="matrix(1 0 0 1 120.80200000000001 648.05100000000004)" fill="rgb(247,88,140)" stroke="none" stroke-width="1"/><path id="e915i3p57j7735" d="M301.798720,693.448000L237.708000,693.448000C231.811377,693.454657,227.032882,698.233157,227.026230,704.129780L227.026230,749.908780C227.032838,755.805428,231.811352,760.583965,237.708000,760.590600L301.798760,760.590600C307.695421,760.583981,312.473957,755.805441,312.480570,749.908780L312.480570,704.129780C312.473913,698.233128,307.695372,693.454619,301.798720,693.448000ZM301.798720,699.551880C302.181343,699.553385,302.562254,699.603073,302.932460,699.699770L269.760780,726.161060L236.783050,699.645930C237.087366,699.583296,237.397265,699.551784,237.707960,699.551880ZM301.798720,754.486720L237.708000,754.486720C235.180884,754.483816,233.132982,752.435896,233.130100,749.908780L233.130100,704.540880L267.841100,732.449760C268.954487,733.344856,270.539804,733.347873,271.656590,732.457020L306.376720,704.760270L306.376720,749.908780C306.373838,752.435935,304.325875,754.483871,301.798720,754.486720Z" transform="matrix(1 0 0 1 -148.95099999999999 -78.96860000000000)" fill="rgb(255,255,255)" stroke="none" stroke-width="1"/></g><path id="e915i3p57j7736" d="M312.767600,645.555310L305.980810,662.119560C304.590806,665.512060,304.766233,669.344680,306.460340,672.596014C308.154446,675.847348,311.195101,678.187042,314.771960,678.991560L314.771960,678.991560C318.628879,679.859072,322.668597,678.843864,325.657165,676.256035C328.645734,673.668205,330.228143,669.815161,329.921040,665.873830L328.458740,647.106880L337.954440,588.719220L370.623020,575.149620L354.175390,553.264620L317.832890,574.673230Z" transform="matrix(1 0 0 1 -148.95099999999999 -78.96860000000000)" fill="rgb(255,184,184)" stroke="none" stroke-width="1"/></g><script><![CDATA[!function(t,n){"object"==typeof exports&&"undefined"!=typeof module?module.exports=n():"function"==typeof define&&define.amd?define(n):(t=t||self).__SVGATOR_PLAYER__=n()}(this,(function(){"use strict";function t(n){return(t="function"==typeof Symbol&&"symbol"==typeof Symbol.iterator?function(t){return typeof t}:function(t){return t&&"function"==typeof Symbol&&t.constructor===Symbol&&t!==Symbol.prototype?"symbol":typeof t})(n)}function n(t,n){if(!(t instanceof n))throw new TypeError("Cannot call a class as a function")}function r(t,n){for(var r=0;r<n.length;r++){var e=n[r];e.enumerable=e.enumerable||!1,e.configurable=!0,"value"in e&&(e.writable=!0),Object.defineProperty(t,e.key,e)}}function e(t,n,e){return n&&r(t.prototype,n),e&&r(t,e),t}function i(t){return(i=Object.setPrototypeOf?Object.getPrototypeOf:function(t){return t.__proto__||Object.getPrototypeOf(t)})(t)}function o(t,n){return(o=Object.setPrototypeOf||function(t,n){return t.__proto__=n,t})(t,n)}function u(t,n){return!n||"object"!=typeof n&&"function"!=typeof n?function(t){if(void 0===t)throw new ReferenceError("this hasn't been initialised - super() hasn't been called");return t}(t):n}function a(t){var n=function(){if("undefined"==typeof Reflect||!Reflect.construct)return!1;if(Reflect.construct.sham)return!1;if("function"==typeof Proxy)return!0;try{return Date.prototype.toString.call(Reflect.construct(Date,[],(function(){}))),!0}catch(t){return!1}}();return function(){var r,e=i(t);if(n){var o=i(this).constructor;r=Reflect.construct(e,arguments,o)}else r=e.apply(this,arguments);return u(this,r)}}function l(t,n,r){return(l="undefined"!=typeof Reflect&&Reflect.get?Reflect.get:function(t,n,r){var e=function(t,n){for(;!Object.prototype.hasOwnProperty.call(t,n)&&null!==(t=i(t)););return t}(t,n);if(e){var o=Object.getOwnPropertyDescriptor(e,n);return o.get?o.get.call(r):o.value}})(t,n,r||t)}var f=Math.abs;function s(t){return t}function c(t,n,r){var e=1-r;return 3*r*e*(t*e+n*r)+r*r*r}function h(){var t=arguments.length>0&&void 0!==arguments[0]?arguments[0]:0,n=arguments.length>1&&void 0!==arguments[1]?arguments[1]:0,r=arguments.length>2&&void 0!==arguments[2]?arguments[2]:1,e=arguments.length>3&&void 0!==arguments[3]?arguments[3]:1;return t<0||t>1||r<0||r>1?null:f(t-n)<=1e-5&&f(r-e)<=1e-5?s:function(i){if(i<=0)return t>0?i*n/t:0===n&&r>0?i*e/r:0;if(i>=1)return r<1?1+(i-1)*(e-1)/(r-1):1===r&&t<1?1+(i-1)*(n-1)/(t-1):1;for(var o,u=0,a=1;u<a;){var l=c(t,r,o=(u+a)/2);if(f(i-l)<1e-5)break;l<i?u=o:a=o}return c(n,e,o)}}function v(){return 1}function y(t){return 1===t?1:0}function d(){var t=arguments.length>0&&void 0!==arguments[0]?arguments[0]:1,n=arguments.length>1&&void 0!==arguments[1]?arguments[1]:0;if(1===t){if(0===n)return y;if(1===n)return v}var r=1/t;return function(t){return t>=1?1:(t+=n*r)-t%r}}function g(t){var n=arguments.length>1&&void 0!==arguments[1]?arguments[1]:2;if(Number.isInteger(t))return t;var r=Math.pow(10,n);return Math.round(t*r)/r}var p=Math.PI/180;function m(t,n,r){return t>=.5?r:n}function w(t,n,r){return 0===t||n===r?n:t*(r-n)+n}function b(t,n,r){var e=w(t,n,r);return e<=0?0:e}function k(t,n,r){return 0===t?n:1===t?r:{x:w(t,n.x,r.x),y:w(t,n.y,r.y)}}function x(t,n,r){var e=function(t,n,r){return Math.round(w(t,n,r))}(t,n,r);return e<=0?0:e>=255?255:e}function A(t,n,r){return 0===t?n:1===t?r:{r:x(t,n.r,r.r),g:x(t,n.g,r.g),b:x(t,n.b,r.b),a:w(t,null==n.a?1:n.a,null==r.a?1:r.a)}}function _(t,n,r){if(0===t)return n;if(1===t)return r;var e=n.length;if(e!==r.length)return m(t,n,r);for(var i=[],o=0;o<e;o++)i.push(A(t,n[o],r[o]));return i}function S(t,n){for(var r=[],e=0;e<t;e++)r.push(n);return r}function O(t,n){if(--n<=0)return t;var r=(t=Object.assign([],t)).length;do{for(var e=0;e<r;e++)t.push(t[e])}while(--n>0);return t}var M,j=function(){function t(r){n(this,t),this.list=r,this.length=r.length}return e(t,[{key:"setAttribute",value:function(t,n){for(var r=this.list,e=0;e<this.length;e++)r[e].setAttribute(t,n)}},{key:"removeAttribute",value:function(t){for(var n=this.list,r=0;r<this.length;r++)n[r].removeAttribute(t)}},{key:"style",value:function(t,n){for(var r=this.list,e=0;e<this.length;e++)r[e].style[t]=n}}]),t}(),F=/-./g,P=function(t,n){return n.toUpperCase()};function I(t){return"function"==typeof t?t:m}function q(t){return t?"function"==typeof t?t:Array.isArray(t)?function(t){var n=arguments.length>1&&void 0!==arguments[1]?arguments[1]:s;if(!Array.isArray(t))return n;switch(t.length){case 1:return d(t[0])||n;case 2:return d(t[0],t[1])||n;case 4:return h(t[0],t[1],t[2],t[3])||n}return n}(t,null):function(t,n){var r=arguments.length>2&&void 0!==arguments[2]?arguments[2]:s;switch(t){case"linear":return s;case"steps":return d(n.steps||1,n.jump||0)||r;case"bezier":case"cubic-bezier":return h(n.x1||0,n.y1||0,n.x2||0,n.y2||0)||r}return r}(t.type,t.value,null):null}function B(t,n,r){var e=arguments.length>3&&void 0!==arguments[3]&&arguments[3],i=n.length-1;if(t<=n[0].t)return e?[0,0,n[0].v]:n[0].v;if(t>=n[i].t)return e?[i,1,n[i].v]:n[i].v;var o,u=n[0],a=null;for(o=1;o<=i;o++){if(!(t>n[o].t)){a=n[o];break}u=n[o]}return null==a?e?[i,1,n[i].v]:n[i].v:u.t===a.t?e?[o,1,a.v]:a.v:(t=(t-u.t)/(a.t-u.t),u.e&&(t=u.e(t)),e?[o,t,r(t,u.v,a.v)]:r(t,u.v,a.v))}function R(t,n){var r=arguments.length>2&&void 0!==arguments[2]?arguments[2]:null;return t&&t.length?"function"!=typeof n?null:("function"!=typeof r&&(r=null),function(e){var i=B(e,t,n);return null!=i&&r&&(i=r(i)),i}):null}function E(t,n){return t.t-n.t}function T(n,r,e,i,o){var u,a="@"===e[0],l="#"===e[0],f=M[e],s=m;switch(a?(u=e.substr(1),e=u.replace(F,P)):l&&(e=e.substr(1)),t(f)){case"function":if(s=f(i,o,B,q,e,a,r,n),l)return s;break;case"string":s=R(i,I(f));break;case"object":if((s=R(i,I(f.i),f.f))&&"function"==typeof f.u)return f.u(r,s,e,a,n)}return s?function(t,n,r){var e=arguments.length>3&&void 0!==arguments[3]&&arguments[3];if(e)return t instanceof j?function(e){return t.style(n,r(e))}:function(e){return t.style[n]=r(e)};if(Array.isArray(n)){var i=n.length;return function(e){var o=r(e);if(null==o)for(var u=0;u<i;u++)t[u].removeAttribute(n);else for(var a=0;a<i;a++)t[a].setAttribute(n,o)}}return function(e){var i=r(e);null==i?t.removeAttribute(n):t.setAttribute(n,i)}}(r,e,s,a):null}function z(n,r,e,i){if(!i||"object"!==t(i))return null;var o=null,u=null;return Array.isArray(i)?u=function(t){if(!t||!t.length)return null;for(var n=0;n<t.length;n++)t[n].e&&(t[n].e=q(t[n].e));return t.sort(E)}(i):(u=i.keys,o=i.data||null),u?T(n,r,e,u,o):null}function C(t,n,r){if(!r)return null;var e=[];for(var i in r)if(r.hasOwnProperty(i)){var o=z(t,n,i,r[i]);o&&e.push(o)}return e.length?e:null}function D(t,n){if(!n.duration||n.duration<0)return null;var r=function(t,n){if(!n)return null;var r=[];if(Array.isArray(n))for(var e=n.length,i=0;i<e;i++){var o=n[i];if(2===o.length){var u=null;if("string"==typeof o[0])u=t.getElementById(o[0]);else if(Array.isArray(o[0])){u=[];for(var a=0;a<o[0].length;a++)if("string"==typeof o[0][a]){var l=t.getElementById(o[0][a]);l&&u.push(l)}u=u.length?1===u.length?u[0]:new j(u):null}if(u){var f=C(t,u,o[1]);f&&(r=r.concat(f))}}}else for(var s in n)if(n.hasOwnProperty(s)){var c=t.getElementById(s);if(c){var h=C(t,c,n[s]);h&&(r=r.concat(h))}}return r.length?r:null}(t,n.elements);return r?function(t,n){var r=arguments.length>2&&void 0!==arguments[2]?arguments[2]:1/0,e=arguments.length>3&&void 0!==arguments[3]?arguments[3]:1,i=arguments.length>4&&void 0!==arguments[4]&&arguments[4],o=arguments.length>5&&void 0!==arguments[5]?arguments[5]:1,u=t.length,a=e>0?n:0;i&&r%2==0&&(a=n-a);var l=null;return function(f,s){var c=f%n,h=1+(f-c)/n;s*=e,i&&h%2==0&&(s=-s);var v=!1;if(h>r)c=a,v=!0,-1===o&&(c=e>0?0:n);else if(s<0&&(c=n-c),c===l)return!1;l=c;for(var y=0;y<u;y++)t[y](c);return v}}(r,n.duration,n.iterations||1/0,n.direction||1,!!n.alternate,n.fill||1):null}function N(t,n){if(M=n,!t||!t.root||!Array.isArray(t.animations))return null;var r=window.document.getElementById(t.root);if(!r)return null;var e=t.animations.map((function(t){return D(r,t)})).filter((function(t){return!!t}));return e.length?{element:r,animations:e,animationSettings:t.animationSettings,options:t.options||void 0}:null}var L=function(){function t(r,e){var i=arguments.length>2&&void 0!==arguments[2]?arguments[2]:{};n(this,t),this._id=0,this._running=!1,this._rollingBack=!1,this._animations=r,this.duration=e.duration,this.alternate=e.alternate,this.fill=e.fill,this.iterations=e.iterations,this.direction=i.direction||1,this.speed=i.speed||1,this.fps=i.fps||100,this.offset=i.offset||0,this.rollbackStartOffset=0}return e(t,[{key:"_rollback",value:function(){var t=this,n=1/0,r=null;this.rollbackStartOffset=this.offset,this._rollingBack||(this._rollingBack=!0,this._running=!0);this._id=window.requestAnimationFrame((function e(i){if(t._rollingBack){null==r&&(r=i);var o=i-r,u=t.rollbackStartOffset-o,a=Math.round(u*t.speed);if(a>t.duration&&n!=1/0){var l=!!t.alternate&&a/t.duration%2>1,f=a%t.duration;a=(f+=l?t.duration:0)||t.duration}var s=t.fps?1e3/t.fps:0,c=Math.max(0,a);if(c<n-s){t.offset=c,n=c;for(var h=t._animations,v=h.length,y=0;y<v;y++)h[y](c,t.direction)}var d=!1;if(t.iterations>0&&-1===t.fill){var g=t.iterations*t.duration,p=g==a;a=p?0:a,t.offset=p?0:t.offset,d=a>g}a>0&&t.offset>=a&&!d?t._id=window.requestAnimationFrame(e):t.stop()}}))}},{key:"_start",value:function(){var t=this,n=arguments.length>0&&void 0!==arguments[0]?arguments[0]:0,r=-1/0,e=null,i={},o=function o(u){t._running=!0,null==e&&(e=u);var a=Math.round((u-e+n)*t.speed),l=t.fps?1e3/t.fps:0;if(a>r+l&&!t._rollingBack){t.offset=a,r=a;for(var f=t._animations,s=f.length,c=0,h=0;h<s;h++)i[h]?c++:(i[h]=f[h](a,t.direction),i[h]&&c++);if(c===s)return void t._stop()}t._id=window.requestAnimationFrame(o)};this._id=window.requestAnimationFrame(o)}},{key:"_stop",value:function(){this._id&&window.cancelAnimationFrame(this._id),this._running=!1,this._rollingBack=!1}},{key:"play",value:function(){!this._rollingBack&&this._running||(this._rollingBack=!1,this.rollbackStartOffset>this.duration&&(this.offset=this.rollbackStartOffset-(this.rollbackStartOffset-this.offset)%this.duration,this.rollbackStartOffset=0),this._start(this.offset))}},{key:"stop",value:function(){this._stop(),this.offset=0,this.rollbackStartOffset=0;var t=this.direction,n=this._animations;window.requestAnimationFrame((function(){for(var r=0;r<n.length;r++)n[r](0,t)}))}},{key:"reachedToEnd",value:function(){return this.iterations>0&&this.offset>=this.iterations*this.duration}},{key:"restart",value:function(){this._stop(),this.offset=0,this._start()}},{key:"pause",value:function(){this._stop()}},{key:"reverse",value:function(){this.direction=-this.direction}}],[{key:"build",value:function(n,r){return(n=N(n,r))?{el:n.element,options:n.options||{},player:new t(n.animations,n.animationSettings,n.options)}:null}}]),t}();!function(){for(var t=0,n=["ms","moz","webkit","o"],r=0;r<n.length&&!window.requestAnimationFrame;++r)window.requestAnimationFrame=window[n[r]+"RequestAnimationFrame"],window.cancelAnimationFrame=window[n[r]+"CancelAnimationFrame"]||window[n[r]+"CancelRequestAnimationFrame"];window.requestAnimationFrame||(window.requestAnimationFrame=function(n){var r=Date.now(),e=Math.max(0,16-(r-t)),i=window.setTimeout((function(){n(r+e)}),e);return t=r+e,i},window.cancelAnimationFrame=window.clearTimeout)}();var V=/\.0+$/g;function $(t){return Number.isInteger(t)?t+"":t.toFixed(6).replace(V,"")}function G(t){return t?null==t.a||t.a>=1?"rgb("+t.r+","+t.g+","+t.b+")":"rgba("+t.r+","+t.g+","+t.b+","+t.a+")":"transparent"}var H={f:null,i:function(t,n,r){return 0===t?n:1===t?r:{x:b(t,n.x,r.x),y:b(t,n.y,r.y)}},u:function(t,n){return function(r){var e=n(r);t.setAttribute("rx",$(e.x)),t.setAttribute("ry",$(e.y))}}},Q={f:null,i:function(t,n,r){return 0===t?n:1===t?r:{width:b(t,n.width,r.width),height:b(t,n.height,r.height)}},u:function(t,n){return function(r){var e=n(r);t.setAttribute("width",$(e.width)),t.setAttribute("height",$(e.height))}}},U=Math.sin,Y=Math.cos,Z=Math.acos,J=Math.asin,K=Math.tan,W=Math.atan2,X=Math.PI/180,tt=180/Math.PI,nt=Math.sqrt,rt=function(){function t(){var r=arguments.length>0&&void 0!==arguments[0]?arguments[0]:1,e=arguments.length>1&&void 0!==arguments[1]?arguments[1]:0,i=arguments.length>2&&void 0!==arguments[2]?arguments[2]:0,o=arguments.length>3&&void 0!==arguments[3]?arguments[3]:1,u=arguments.length>4&&void 0!==arguments[4]?arguments[4]:0,a=arguments.length>5&&void 0!==arguments[5]?arguments[5]:0;n(this,t),this.m=[r,e,i,o,u,a],this.i=null,this.w=null,this.s=null}return e(t,[{key:"point",value:function(t,n){var r=this.m;return{x:r[0]*t+r[2]*n+r[4],y:r[1]*t+r[3]*n+r[5]}}},{key:"translateSelf",value:function(){var t=arguments.length>0&&void 0!==arguments[0]?arguments[0]:0,n=arguments.length>1&&void 0!==arguments[1]?arguments[1]:0;if(!t&&!n)return this;var r=this.m;return r[4]+=r[0]*t+r[2]*n,r[5]+=r[1]*t+r[3]*n,this.w=this.s=this.i=null,this}},{key:"rotateSelf",value:function(){var t=arguments.length>0&&void 0!==arguments[0]?arguments[0]:0;if(t%=360){var n=U(t*=X),r=Y(t),e=this.m,i=e[0],o=e[1];e[0]=i*r+e[2]*n,e[1]=o*r+e[3]*n,e[2]=e[2]*r-i*n,e[3]=e[3]*r-o*n,this.w=this.s=this.i=null}return this}},{key:"scaleSelf",value:function(){var t=arguments.length>0&&void 0!==arguments[0]?arguments[0]:1,n=arguments.length>1&&void 0!==arguments[1]?arguments[1]:1;if(1!==t||1!==n){var r=this.m;r[0]*=t,r[1]*=t,r[2]*=n,r[3]*=n,this.w=this.s=this.i=null}return this}},{key:"skewSelf",value:function(t,n){if(n%=360,(t%=360)||n){var r=this.m,e=r[0],i=r[1],o=r[2],u=r[3];t&&(t=K(t*X),r[2]+=e*t,r[3]+=i*t),n&&(n=K(n*X),r[0]+=o*n,r[1]+=u*n),this.w=this.s=this.i=null}return this}},{key:"resetSelf",value:function(){var t=arguments.length>0&&void 0!==arguments[0]?arguments[0]:1,n=arguments.length>1&&void 0!==arguments[1]?arguments[1]:0,r=arguments.length>2&&void 0!==arguments[2]?arguments[2]:0,e=arguments.length>3&&void 0!==arguments[3]?arguments[3]:1,i=arguments.length>4&&void 0!==arguments[4]?arguments[4]:0,o=arguments.length>5&&void 0!==arguments[5]?arguments[5]:0,u=this.m;return u[0]=t,u[1]=n,u[2]=r,u[3]=e,u[4]=i,u[5]=o,this.w=this.s=this.i=null,this}},{key:"recomposeSelf",value:function(){var t=arguments.length>0&&void 0!==arguments[0]?arguments[0]:null,n=arguments.length>1&&void 0!==arguments[1]?arguments[1]:null,r=arguments.length>2&&void 0!==arguments[2]?arguments[2]:null,e=arguments.length>3&&void 0!==arguments[3]?arguments[3]:null,i=arguments.length>4&&void 0!==arguments[4]?arguments[4]:null;return this.isIdentity||this.resetSelf(),t&&(t.x||t.y)&&this.translateSelf(t.x,t.y),n&&this.rotateSelf(n),r&&(r.x&&this.skewSelf(r.x,0),r.y&&this.skewSelf(0,r.y)),!e||1===e.x&&1===e.y||this.scaleSelf(e.x,e.y),i&&(i.x||i.y)&&this.translateSelf(i.x,i.y),this}},{key:"decompose",value:function(){var t=arguments.length>0&&void 0!==arguments[0]?arguments[0]:0,n=arguments.length>1&&void 0!==arguments[1]?arguments[1]:0,r=this.m,e=r[0]*r[0]+r[1]*r[1],i=[[r[0],r[1]],[r[2],r[3]]],o=nt(e);if(0===o)return{origin:{x:r[4],y:r[5]},translate:{x:t,y:n},scale:{x:0,y:0},skew:{x:0,y:0},rotate:0};i[0][0]/=o,i[0][1]/=o;var u=r[0]*r[3]-r[1]*r[2]<0;u&&(o=-o);var a=i[0][0]*i[1][0]+i[0][1]*i[1][1];i[1][0]-=i[0][0]*a,i[1][1]-=i[0][1]*a;var l=nt(i[1][0]*i[1][0]+i[1][1]*i[1][1]);if(0===l)return{origin:{x:r[4],y:r[5]},translate:{x:t,y:n},scale:{x:o,y:0},skew:{x:0,y:0},rotate:0};i[1][0]/=l,i[1][1]/=l,a/=l;var f=0;return i[1][1]<0?(f=Z(i[1][1])*tt,i[0][1]<0&&(f=360-f)):f=J(i[0][1])*tt,u&&(f=-f),a=W(a,nt(i[0][0]*i[0][0]+i[0][1]*i[0][1]))*tt,{origin:{x:r[4],y:r[5]},translate:{x:t,y:n},scale:{x:o,y:l},skew:{x:a,y:0},rotate:f}}},{key:"toString",value:function(){return null===this.s&&(this.s="matrix("+this.m.map(it).join(" ")+")"),this.s}},{key:"determinant",get:function(){var t=this.m;return t[0]*t[3]-t[1]*t[2]}},{key:"isIdentity",get:function(){if(null===this.i){var t=this.m;this.i=1===t[0]&&0===t[1]&&0===t[2]&&1===t[3]&&0===t[4]&&0===t[5]}return this.i}}]),t}(),et=/\.0+$/;function it(t){return Number.isInteger(t)?t:t.toFixed(14).replace(et,"")}Object.freeze({M:2,L:2,Z:0,H:1,V:1,C:6,Q:4,T:2,S:4,A:7});function ot(t,n,r){return t+(n-t)*r}function ut(t,n,r){var e=arguments.length>3&&void 0!==arguments[3]&&arguments[3],i={x:ot(t.x,n.x,r),y:ot(t.y,n.y,r)};return e&&(i.a=at(t,n)),i}function at(t,n){return Math.atan2(n.y-t.y,n.x-t.x)}function lt(t,n,r,e){var i=1-e;return i*i*t+2*i*e*n+e*e*r}function ft(t,n,r,e){return 2*(1-e)*(n-t)+2*e*(r-n)}function st(t,n,r,e){var i=arguments.length>4&&void 0!==arguments[4]&&arguments[4],o={x:lt(t.x,n.x,r.x,e),y:lt(t.y,n.y,r.y,e)};return i&&(o.a=ct(t,n,r,e)),o}function ct(t,n,r,e){return Math.atan2(ft(t.y,n.y,r.y,e),ft(t.x,n.x,r.x,e))}function ht(t,n,r,e,i){var o=i*i;return i*o*(e-t+3*(n-r))+3*o*(t+r-2*n)+3*i*(n-t)+t}function vt(t,n,r,e,i){var o=1-i;return 3*(o*o*(n-t)+2*o*i*(r-n)+i*i*(e-r))}function yt(t,n,r,e,i){var o=arguments.length>5&&void 0!==arguments[5]&&arguments[5],u={x:ht(t.x,n.x,r.x,e.x,i),y:ht(t.y,n.y,r.y,e.y,i)};return o&&(u.a=dt(t,n,r,e,i)),u}function dt(t,n,r,e,i){return Math.atan2(vt(t.y,n.y,r.y,e.y,i),vt(t.x,n.x,r.x,e.x,i))}function gt(t,n,r){var e=arguments.length>3&&void 0!==arguments[3]&&arguments[3];if(mt(n)){if(wt(r))return st(n,r.start,r,t,e)}else if(mt(r)){if(n.end)return st(n,n.end,r,t,e)}else{if(n.end)return r.start?yt(n,n.end,r.start,r,t,e):st(n,n.end,r,t,e);if(r.start)return st(n,r.start,r,t,e)}return ut(n,r,t,e)}function pt(t,n,r){var e=gt(t,n,r,!0);return e.a=function(t){var n=arguments.length>1&&void 0!==arguments[1]&&arguments[1];return n?t+Math.PI:t}(e.a)/p,e}function mt(t){return!t.type||"corner"===t.type}function wt(t){return null!=t.start&&!mt(t)}var bt=new rt;var kt={f:$,i:w},xt={f:$,i:function(t,n,r){var e=w(t,n,r);return e<=0?0:e>=1?1:e}};function At(t,n,r,e,i,o,u,a){return n=function(t,n,r){for(var e,i,o,u=t.length-1,a={},l=0;l<=u;l++)(e=t[l]).e&&(e.e=n(e.e)),e.v&&"g"===(i=e.v).t&&i.r&&(o=r.getElementById(i.r))&&(a[i.r]=o.querySelectorAll("stop"));return a}(t,e,a),function(e){var i,o=r(e,t,_t);return o?"c"===o.t?G(o.v):"g"===o.t?(n[o.r]&&function(t,n){for(var r=0,e=t.length;r<e;r++)t[r].setAttribute("stop-color",G(n[r]))}(n[o.r],o.v),(i=o.r)?"url(#"+i+")":"none"):"none":"none"}}function _t(t,n,r){if(0===t)return n;if(1===t)return r;if(n&&r){var e=n.t;if(e===r.t)switch(n.t){case"c":return{t:e,v:A(t,n.v,r.v)};case"g":if(n.r===r.r)return{t:e,v:_(t,n.v,r.v),r:n.r}}}return m(t,n,r)}var St={fill:At,"fill-opacity":xt,stroke:At,"stroke-opacity":xt,"stroke-width":kt,"stroke-dashoffset":{f:$,i:w},"stroke-dasharray":{f:function(t){var n=arguments.length>1&&void 0!==arguments[1]?arguments[1]:" ";return t&&t.length?t.map($).join(n):""},i:function(t,n,r){var e,i,o,u=n.length,a=r.length;if(u!==a)if(0===u)n=S(u=a,0);else if(0===a)a=u,r=S(u,0);else{var l=(o=(e=u)*(i=a)/function(t,n){for(var r;n;)r=n,n=t%n,t=r;return t||1}(e,i))<0?-o:o;n=O(n,Math.floor(l/u)),r=O(r,Math.floor(l/a)),u=a=l}for(var f=[],s=0;s<u;s++)f.push(g(b(t,n[s],r[s]),6));return f}},opacity:xt,transform:function(n,r,e,i){if(!(n=function(n,r){if(!n||"object"!==t(n))return null;var e=!1;for(var i in n)n.hasOwnProperty(i)&&(n[i]&&n[i].length?(n[i].forEach((function(t){t.e&&(t.e=r(t.e))})),e=!0):delete n[i]);return e?n:null}(n,i)))return null;var o=function(t,i,o){var u=arguments.length>3&&void 0!==arguments[3]?arguments[3]:null;return n[t]?e(i,n[t],o):r&&r[t]?r[t]:u};return r&&r.a&&n.o?function(t){var r=e(t,n.o,pt);return bt.recomposeSelf(r,o("r",t,w,0)+r.a,o("k",t,k),o("s",t,k),o("t",t,k)).toString()}:function(t){return bt.recomposeSelf(o("o",t,gt,null),o("r",t,w,0),o("k",t,k),o("s",t,k),o("t",t,k)).toString()}},r:kt,"#size":Q,"#radius":H,_:function(t,n){if(Array.isArray(t))for(var r=0;r<t.length;r++)this[t[r]]=n;else this[t]=n}};return function(t){!function(t,n){if("function"!=typeof n&&null!==n)throw new TypeError("Super expression must either be null or a function");t.prototype=Object.create(n&&n.prototype,{constructor:{value:t,writable:!0,configurable:!0}}),n&&o(t,n)}(u,t);var r=a(u);function u(){return n(this,u),r.apply(this,arguments)}return e(u,null,[{key:"build",value:function(t){var n=l(i(u),"build",this).call(this,t,St),r=(n.el,n.options,n.player);return function(t){t.play()}(r),r}}]),u}(L)}));
__SVGATOR_PLAYER__.build({"root":"e915i3p57j771","animations":[{"duration":3000,"direction":1,"iterations":0,"fill":1,"alternate":false,"elements":{"e915i3p57j773":{"transform":{"data":{"o":{"x":-148.951,"y":-78.9686,"type":"corner"}},"keys":{"s":[{"t":0,"v":{"x":1,"y":1}},{"t":500,"v":{"x":1.02,"y":1}},{"t":1000,"v":{"x":1,"y":1}},{"t":1500,"v":{"x":1.02,"y":1}},{"t":2000,"v":{"x":1,"y":1}},{"t":2500,"v":{"x":1.02,"y":1}},{"t":3000,"v":{"x":1,"y":1}}]}}},"e915i3p57j774":{"transform":{"data":{"o":{"x":-148.951,"y":-78.9686,"type":"corner"}},"keys":{"s":[{"t":0,"v":{"x":1.02,"y":1}},{"t":500,"v":{"x":1,"y":1}},{"t":1000,"v":{"x":1.02,"y":1},"e":[0.39,0.575,0.565,1]},{"t":1500,"v":{"x":1,"y":1}},{"t":2000,"v":{"x":1.02,"y":1}},{"t":2500,"v":{"x":1,"y":1}},{"t":3000,"v":{"x":1.02,"y":1}}]}}},"e915i3p57j775":{"transform":{"data":{"t":{"x":0,"y":-0.00016674804692229372}},"keys":{"o":[{"t":0,"v":{"x":267,"y":715.6271667480469,"type":"corner"},"e":[0.42,0,0.58,1]},{"t":1000,"v":{"x":256.66791415000006,"y":400.38630151304676,"type":"corner"},"e":[0.42,0,0.58,1]},{"t":3000,"v":{"x":242.96407615000004,"y":703.3701315080466,"type":"corner"}}]}}},"e915i3p57j776":{"transform":{"data":{"t":{"x":-298.9565124511719,"y":-411.7205047607422}},"keys":{"o":[{"t":0,"v":{"x":298.9565124511719,"y":411.7205047607422,"type":"corner"},"e":[0.42,0,0.58,1]},{"t":1000,"v":{"x":288.62442660117193,"y":96.47963952574207,"type":"corner"},"e":[0.42,0,0.58,1]},{"t":3000,"v":{"x":274.9205886011719,"y":399.4634695207424,"type":"corner"}}]}}},"e915i3p57j777":{"transform":{"keys":{"o":[{"t":0,"v":{"x":-148.951,"y":-78.9686,"type":"corner"},"e":[0.42,0,0.58,1]},{"t":1000,"v":{"x":-159.28308584999994,"y":-394.20946523500004,"type":"corner"},"e":[0.42,0,0.58,1]},{"t":3000,"v":{"x":-172.98692384999995,"y":-91.22563523999969,"type":"corner"}}]}}},"e915i3p57j778":{"transform":{"keys":{"o":[{"t":0,"v":{"x":-148.951,"y":-78.9686,"type":"corner"},"e":[0.42,0,0.58,1]},{"t":1000,"v":{"x":-159.28308584999994,"y":-394.20946523500004,"type":"corner"},"e":[0.42,0,0.58,1]},{"t":3000,"v":{"x":-172.98692384999995,"y":-91.22563523999969,"type":"corner"}}]}}},"e915i3p57j779":{"transform":{"keys":{"o":[{"t":0,"v":{"x":-148.951,"y":-78.9686,"type":"corner"},"e":[0.42,0,0.58,1]},{"t":1000,"v":{"x":-159.28308584999994,"y":-394.20946523500004,"type":"corner"},"e":[0.42,0,0.58,1]},{"t":3000,"v":{"x":-172.98692384999995,"y":-91.22563523999969,"type":"corner"}}]}}},"e915i3p57j7710":{"transform":{"keys":{"o":[{"t":0,"v":{"x":-148.951,"y":-78.9686,"type":"corner"},"e":[0.42,0,0.58,1]},{"t":1000,"v":{"x":-159.28308584999994,"y":-394.20946523500004,"type":"corner"},"e":[0.42,0,0.58,1]},{"t":3000,"v":{"x":-172.98692384999995,"y":-91.22563523999969,"type":"corner"}}]}}},"e915i3p57j7711":{"transform":{"data":{"t":{"x":0.00035864257813500444,"y":-0.0004167480468595386}},"keys":{"o":[{"t":0,"v":{"x":290.1386413574219,"y":407.9084167480469,"type":"corner"},"e":[0.42,0,0.58,1]},{"t":1000,"v":{"x":279.80655550742193,"y":92.66755151304676,"type":"corner"},"e":[0.42,0,0.58,1]},{"t":3000,"v":{"x":266.1027175074219,"y":395.6513815080471,"type":"corner"}}]}}},"e915i3p57j7712":{"transform":{"keys":{"o":[{"t":0,"v":{"x":-148.951,"y":-78.9686,"type":"corner"},"e":[0.42,0,0.58,1]},{"t":1000,"v":{"x":-159.28308584999994,"y":-394.20946523500004,"type":"corner"},"e":[0.42,0,0.58,1]},{"t":3000,"v":{"x":-172.98692384999995,"y":-91.22563523999969,"type":"corner"}}]}}},"e915i3p57j7713":{"transform":{"keys":{"o":[{"t":0,"v":{"x":-148.951,"y":-78.9686,"type":"corner"},"e":[0.42,0,0.58,1]},{"t":1000,"v":{"x":-159.28308584999994,"y":-394.20946523500004,"type":"corner"},"e":[0.42,0,0.58,1]},{"t":3000,"v":{"x":-172.98692384999995,"y":-91.22563523999969,"type":"corner"}}]}}},"e915i3p57j7714":{"transform":{"keys":{"o":[{"t":0,"v":{"x":-148.951,"y":-78.9686,"type":"corner"},"e":[0.42,0,0.58,1]},{"t":1000,"v":{"x":-159.28308584999994,"y":-394.20946523500004,"type":"corner"},"e":[0.42,0,0.58,1]},{"t":3000,"v":{"x":-172.98692384999995,"y":-91.22563523999969,"type":"corner"}}]}}},"e915i3p57j7715":{"transform":{"keys":{"o":[{"t":0,"v":{"x":-148.951,"y":-78.9686,"type":"corner"},"e":[0.42,0,0.58,1]},{"t":1000,"v":{"x":-159.28308584999994,"y":-394.20946523500004,"type":"corner"},"e":[0.42,0,0.58,1]},{"t":3000,"v":{"x":-172.98692384999995,"y":-91.22563523999969,"type":"corner"}}]}}},"e915i3p57j7716":{"transform":{"keys":{"o":[{"t":0,"v":{"x":-148.951,"y":-78.9686,"type":"corner"},"e":[0.42,0,0.58,1]},{"t":1000,"v":{"x":-159.28308584999994,"y":-394.20946523500004,"type":"corner"},"e":[0.42,0,0.58,1]},{"t":3000,"v":{"x":-172.98692384999995,"y":-91.22563523999969,"type":"corner"}}]}}},"e915i3p57j7717":{"transform":{"keys":{"o":[{"t":0,"v":{"x":-148.951,"y":-78.9686,"type":"corner"},"e":[0.42,0,0.58,1]},{"t":1000,"v":{"x":-159.28308584999994,"y":-394.20946523500004,"type":"corner"},"e":[0.42,0,0.58,1]},{"t":3000,"v":{"x":-172.98692384999995,"y":-91.22563523999969,"type":"corner"}}]}}},"e915i3p57j7718":{"transform":{"keys":{"o":[{"t":0,"v":{"x":-149.95,"y":-78.9686,"type":"corner"},"e":[0.42,0,0.58,1]},{"t":1000,"v":{"x":-160.28208584999993,"y":-394.20946523500004,"type":"corner"},"e":[0.42,0,0.58,1]},{"t":3000,"v":{"x":-173.98592384999995,"y":-91.22563523999969,"type":"corner"}}]}}},"e915i3p57j7723":{"opacity":[{"t":0,"v":1},{"t":500,"v":0.32},{"t":1000,"v":1}]},"e915i3p57j7724":{"opacity":[{"t":2000,"v":1},{"t":2500,"v":0.02},{"t":3000,"v":1}]},"e915i3p57j7725":{"opacity":[{"t":500,"v":1},{"t":1000,"v":0.02},{"t":1400,"v":1}]},"e915i3p57j7726":{"opacity":[{"t":1000,"v":1},{"t":1500,"v":0},{"t":2000,"v":1}]},"e915i3p57j7727":{"opacity":[{"t":1500,"v":1},{"t":2000,"v":0},{"t":2500,"v":0.96}]},"e915i3p57j7728":{"transform":{"data":{"o":{"x":617.8327092114063,"y":253.1961669921875,"type":"corner"},"t":{"x":-617.8327092114063,"y":-253.1961669921875}},"keys":{"s":[{"t":0,"v":{"x":1,"y":1}},{"t":1000,"v":{"x":1.2,"y":1.2}},{"t":1200,"v":{"x":1,"y":1.09}},{"t":1400,"v":{"x":1,"y":1}},{"t":1600,"v":{"x":1.09,"y":1}},{"t":1800,"v":{"x":1,"y":1}},{"t":2000,"v":{"x":1.09,"y":1.09}},{"t":2400,"v":{"x":1,"y":1}},{"t":2600,"v":{"x":1.08,"y":1.08}},{"t":3000,"v":{"x":1,"y":1}}]}}},"e915i3p57j7729":{"opacity":[{"t":0,"v":1},{"t":1500,"v":0.8},{"t":3000,"v":1}]},"e915i3p57j7733":{"transform":{"data":{"t":{"x":-120.802001953125,"y":-648.051025390625}},"keys":{"o":[{"t":1090,"v":{"x":120.802001953125,"y":648.051025390625,"type":"cusp","end":{"x":116.8210058381898,"y":693.6321503312789}}},{"t":2000,"v":{"x":628.1581796531252,"y":565.4857305206251,"type":"cusp","start":{"x":626.8828342805,"y":580.0880247941681},"end":{"x":765.0566122845731,"y":725.9152421670176}}}],"s":[{"t":2000,"v":{"x":1,"y":1}},{"t":2500,"v":{"x":0,"y":0}}]}}},"e915i3p57j7734":{"transform":{"data":{"t":{"x":-0.00009350585936829248,"y":0.00027978515629456524}},"keys":{"o":[{"t":0,"v":{"x":120.80209350585938,"y":648.0507202148438,"type":"corner"},"e":[0.42,0,0.58,1]},{"t":1000,"v":{"x":110.47000765585943,"y":332.80985497984364,"type":"corner"},"e":[0.42,0,0.58,1]}]}}},"e915i3p57j7735":{"transform":{"keys":{"o":[{"t":0,"v":{"x":-148.951,"y":-78.9686,"type":"corner"},"e":[0.42,0,0.58,1]},{"t":1000,"v":{"x":-159.28308584999994,"y":-394.20946523500004,"type":"corner"},"e":[0.42,0,0.58,1]}]}}},"e915i3p57j7736":{"transform":{"keys":{"o":[{"t":0,"v":{"x":-148.951,"y":-78.9686,"type":"corner"},"e":[0.42,0,0.58,1]},{"t":1000,"v":{"x":-159.28308584999994,"y":-394.20946523500004,"type":"corner"},"e":[0.42,0,0.58,1]},{"t":3000,"v":{"x":-172.98692384999995,"y":-91.22563523999969,"type":"corner"}}]}}}}}],"options":{"start":"load","hover":"freeze","click":"freeze","scroll":25,"exportedIds":"unique","title":"personalDetails"},"animationSettings":{"duration":3000,"direction":1,"iterations":0,"fill":1,"alternate":false}})]]></script></svg>